<svg width="48" height="48" viewBox="0 0 48 48" fill="none" xmlns="http://www.w3.org/2000/svg">
<path d="M46.3241 17.2231H44.1016L42.1822 8.26752C41.9026 6.98309 40.7679 6.06556 39.4534 6.06102H8.54659C7.2321 6.06556 6.09739 6.98309 5.81786 8.26752L3.89839 17.2231H1.67595C0.755326 17.2242 0.181183 18.2215 0.642489 19.0182C0.856051 19.3871 1.24976 19.6144 1.67595 19.6149H3.66917V39.1485C3.66917 40.6896 4.91852 41.939 6.45968 41.939H11.2434C12.7846 41.939 14.0339 40.6896 14.0339 39.1485V33.9661H33.9661V39.1485C33.9661 40.6896 35.2155 41.939 36.7566 41.939H41.5404C43.0815 41.939 44.3309 40.6896 44.3309 39.1485V19.6149H46.3241C47.2447 19.6138 47.8189 18.6164 47.3575 17.8197C47.144 17.4509 46.7503 17.2236 46.3241 17.2231ZM8.15591 8.76783C8.19604 8.58079 8.36333 8.44863 8.55456 8.45288H39.4534C39.6447 8.44863 39.812 8.58079 39.8521 8.76783L41.656 17.2231H6.34408L8.15591 8.76783ZM11.6421 39.1485C11.6421 39.3686 11.4636 39.5471 11.2434 39.5471H6.45968C6.23951 39.5471 6.06103 39.3686 6.06103 39.1485V33.9661H11.642L11.6421 39.1485ZM41.5404 39.5471H36.7566C36.5365 39.5471 36.358 39.3686 36.358 39.1485V33.9661H41.939V39.1485C41.939 39.3686 41.7605 39.5471 41.5404 39.5471ZM41.939 31.5742H28.3851V24.7973C28.384 23.8767 27.3866 23.3025 26.5899 23.7638C26.2211 23.9774 25.9938 24.3711 25.9932 24.7973V31.5742H22.0068V24.7973C22.0056 23.8767 21.0083 23.3025 20.2116 23.7638C19.8428 23.9774 19.6155 24.3711 19.6149 24.7973V31.5742H6.06103V19.6149H41.939V31.5742ZM10.0475 25.5946C10.0475 24.0602 11.7085 23.1012 13.0373 23.8684C14.3661 24.6356 14.3661 26.5536 13.0373 27.3208C12.7343 27.4957 12.3906 27.5878 12.0407 27.5878C10.9398 27.5879 10.0475 26.6954 10.0475 25.5946ZM33.9661 25.5946C33.9661 24.0602 35.6271 23.1012 36.9559 23.8684C38.2848 24.6356 38.2848 26.5536 36.9559 27.3208C36.653 27.4957 36.3092 27.5878 35.9593 27.5878C34.8585 27.5879 33.9661 26.6954 33.9661 25.5946Z" fill="#996830" stroke="#996830" stroke-width="0.4"/>
</svg>
