<svg width="56" height="56" viewBox="0 0 56 56" fill="none" xmlns="http://www.w3.org/2000/svg">
<rect width="56" height="56" fill="white"/>
<path d="M16.9928 14.4795L13.2196 18.2527L20.4515 25.4846L29.57 16.3661L22.3381 9.13424L29.57 1.90234L37.7452 10.0775" stroke="#D51417" stroke-width="2.2639"/>
<path d="M33.344 13.5362L30.8285 11.0208L24.5399 17.3094L33.0295 25.799L42.7769 16.0516L38.6893 11.964L35.8594 14.7939" stroke="#0B6476" stroke-width="2.2639"/>
<path d="M5.31487 45.2435C2.95587 45.2435 1.40221 44.1317 1.28105 42.2858L1.27393 42.1789H3.03427L3.04852 42.2644C3.18393 43.1482 4.08905 43.6969 5.37901 43.6969C6.67611 43.6969 7.48857 43.1197 7.48857 42.2359V42.2288C7.48857 41.4591 6.95405 41.0457 5.62845 40.7678L4.52379 40.5397C2.49975 40.1192 1.50199 39.1785 1.50199 37.6462V37.6391C1.50911 35.8289 3.09841 34.603 5.31487 34.603C7.55984 34.603 9.02798 35.7861 9.13488 37.5464L9.14201 37.6676H7.38167L7.36741 37.5821C7.24626 36.6841 6.45517 36.1496 5.30062 36.1496C4.09617 36.1567 3.34785 36.7197 3.34785 37.5393V37.5464C3.34785 38.2734 3.91087 38.701 5.15095 38.9576L6.26275 39.1856C8.40081 39.6275 9.33443 40.497 9.33443 42.1005V42.1076C9.33443 44.0248 7.82353 45.2435 5.31487 45.2435Z" fill="#0B6476"/>
<path d="M14.9507 45.2435C11.9432 45.2435 10.0688 43.1981 10.0688 39.9268V39.9126C10.0688 36.6484 11.9574 34.603 14.9507 34.603C17.9511 34.603 19.8255 36.6484 19.8255 39.9126V39.9268C19.8255 43.1981 17.9583 45.2435 14.9507 45.2435ZM14.9507 43.647C16.8108 43.647 17.9583 42.1932 17.9583 39.9268V39.9126C17.9583 37.632 16.7894 36.1995 14.9507 36.1995C13.1191 36.1995 11.9432 37.6248 11.9432 39.9126V39.9268C11.9432 42.2145 13.112 43.647 14.9507 43.647Z" fill="#0B6476"/>
<path d="M21.0017 45.0653V34.7812H23.1255L26.2756 42.635H26.3255L29.4756 34.7812H31.5994V45.0653H29.946V37.7531H29.8889L26.9242 45.0653H25.677L22.7122 37.7531H22.6623V45.0653H21.0017Z" fill="#0B6476"/>
<path d="M32.4122 45.0653L36.0896 34.7812H38.1564L41.8339 45.0653H39.9025L39.033 42.407H35.2059L34.3364 45.0653H32.4122ZM37.1016 36.6128L35.6691 40.9887H38.5698L37.1444 36.6128H37.1016Z" fill="#0B6476"/>
<path d="M42.6395 45.0653V34.7812H44.293L49.3032 41.9865H49.3459V34.7812H51.1704V45.0653H49.5312L44.5068 37.8315H44.4711V45.0653H42.6395Z" fill="#0B6476"/>
<path d="M52.6958 45.0653V34.7812H54.5346V45.0653H52.6958Z" fill="#0B6476"/>
<path d="M16.0512 54.3374C14.3338 54.3374 13.2211 53.0494 13.2211 51.0386V51.0342C13.2211 49.0628 14.3294 47.8142 16.0512 47.8142C17.4355 47.8142 18.3336 48.5984 18.6272 49.7769L18.6447 49.847H18.0226L18.0051 49.8032C17.7072 48.87 17.0106 48.3706 16.0512 48.3706C14.6799 48.3706 13.83 49.3826 13.83 51.0342V51.0386C13.83 52.7252 14.6931 53.7811 16.0512 53.7811C17.2734 53.7811 18.0883 52.9487 18.0883 51.7264V51.5862H16.1256V51.0605H18.6841V51.5906C18.6841 53.286 17.6896 54.3374 16.0512 54.3374Z" fill="#0B6476"/>
<path d="M19.8317 54.2367V47.915H22.0616C23.2971 47.915 24.0856 48.6378 24.0856 49.7637V49.7725C24.0856 50.6618 23.5731 51.3321 22.7319 51.5512L24.2652 54.2367H23.5643L22.1098 51.6475C22.0748 51.6475 22.0222 51.6475 21.9828 51.6475H20.4275V54.2367H19.8317ZM20.4275 51.1174H22.0134C22.9291 51.1174 23.4679 50.6268 23.4679 49.7856V49.7769C23.4679 48.9445 22.9072 48.4494 21.9915 48.4494H20.4275V51.1174Z" fill="#0B6476"/>
<path d="M27.8618 54.3374C26.0963 54.3374 24.9879 53.0801 24.9879 51.078V51.0692C24.9879 49.0759 26.1007 47.8142 27.8618 47.8142C29.623 47.8142 30.7313 49.0759 30.7313 51.0692V51.078C30.7313 53.0801 29.6273 54.3374 27.8618 54.3374ZM27.8618 53.7811C29.255 53.7811 30.118 52.7209 30.118 51.078V51.0692C30.118 49.4176 29.2418 48.3706 27.8618 48.3706C26.4774 48.3706 25.5969 49.4133 25.5969 51.0692V51.078C25.5969 52.734 26.4731 53.7811 27.8618 53.7811Z" fill="#0B6476"/>
<path d="M34.2929 54.3374C32.7727 54.3374 31.8439 53.4087 31.8439 52.0287V47.915H32.4397V51.9936C32.4397 53.067 33.1319 53.7811 34.2929 53.7811C35.4538 53.7811 36.1373 53.067 36.1373 51.9936V47.915H36.7374V52.0287C36.7374 53.4087 35.8131 54.3374 34.2929 54.3374Z" fill="#0B6476"/>
<path d="M38.0954 54.2367V47.915H40.2464C41.4512 47.915 42.2748 48.6992 42.2748 49.8733V49.882C42.2748 51.0561 41.4512 51.8534 40.2464 51.8534H38.6912V54.2367H38.0954ZM40.1062 48.4494H38.6912V51.319H40.1062C41.0788 51.319 41.6658 50.7801 41.6658 49.8864V49.8776C41.6658 48.9883 41.0788 48.4494 40.1062 48.4494Z" fill="#0B6476"/>
</svg>
