<svg width="48" height="48" viewBox="0 0 48 48" fill="none" xmlns="http://www.w3.org/2000/svg">
<path d="M45.9148 36.538H44.3481V11.8426L46.2419 11.4352C47.4273 11.2129 47.9275 9.79069 47.1423 8.87528C46.7591 8.42859 46.1579 8.23431 45.5858 8.37225L1.71757 17.7726C0.538647 18.027 0.0772098 19.4622 0.887004 20.356C1.18365 20.6834 1.60477 20.8704 2.0466 20.8708C2.15784 20.8706 2.26877 20.8588 2.37755 20.8355L3.61331 20.5712V36.538H2.0466C0.840522 36.5381 0.0867161 37.8437 0.68981 38.8882C0.969672 39.3729 1.48687 39.6715 2.0466 39.6715H45.9148C47.1209 39.6715 47.8747 38.3659 47.2717 37.3214C46.9918 36.8366 46.4746 36.538 45.9148 36.538ZM6.74675 19.8916L41.2147 12.5143V36.538H36.5145V25.571C36.5145 24.7057 35.8131 24.0042 34.9478 24.0042H13.0137C12.1484 24.0042 11.4469 24.7057 11.4469 25.571V36.538H6.74675V19.8916ZM33.3811 30.2711H14.5804V27.1377H33.3811V30.2711ZM14.5804 33.4046H33.3811V36.538H14.5804V33.4046Z" fill="#996830"/>
</svg>
