<svg width="1758" height="407" viewBox="0 0 1758 407" fill="none" xmlns="http://www.w3.org/2000/svg">
<g opacity="0.12">
<path d="M1756.82 1.22412C1381.92 22.0048 856.874 258.197 902.734 340.328C932.806 394.168 1300.9 392.959 1401.22 402.67C1538.02 415.894 1279.6 366.388 1228.14 309.156C1167.01 241.147 1266.85 62.3572 963.5 93.7927C698.763 121.242 639.366 210.146 450.135 208.087C278.991 206.198 147.493 131.576 63.5187 69.2337" stroke="#9D1B28" stroke-width="1.18753" stroke-miterlimit="10"/>
<path d="M1756.71 6.67432C1397.46 29.8448 892.312 258.584 930.272 337.277C955.165 388.832 1303.8 387.112 1396.62 395.84C1525.31 407.922 1277.92 360.343 1226.85 305.435C1165.66 239.598 1256.64 68.4969 963.793 98.8084C702.55 125.776 647.683 216.748 456.696 216.881C285.193 216.767 148.392 143.761 60.6151 82.7506" stroke="#9D1B28" stroke-width="1.18753" stroke-miterlimit="10"/>
<path d="M1756.6 12.0957C1413 37.656 927.756 258.923 957.791 334.197C977.505 383.466 1306.7 381.237 1392.03 388.982C1512.63 399.883 1276.24 354.269 1225.56 301.675C1164.32 238.01 1246.41 74.6173 964.092 103.795C706.343 130.291 656 223.568 463.236 225.646C291.396 227.535 149.298 155.927 57.6916 96.2387" stroke="#9D1B28" stroke-width="1.18753" stroke-miterlimit="10"/>
<path d="M1756.47 17.5559C1428.52 45.5154 963.17 259.273 985.304 331.156C999.84 378.111 1309.59 375.4 1387.44 382.163C1500.01 391.817 1274.53 348.196 1224.27 297.925C1162.79 236.424 1236.18 80.7387 964.361 108.774C710.131 134.806 664.367 230.294 469.825 234.403C297.652 238.077 150.225 168.103 54.7901 109.718" stroke="#9D1B28" stroke-width="1.18753" stroke-miterlimit="10"/>
<path d="M1756.35 22.9966C1443.9 53.3459 998.609 259.576 1012.82 328.095C1022.17 372.726 1312.46 369.534 1382.82 375.267C1487.33 383.769 1272.8 342.132 1222.97 294.175C1161.33 234.846 1225.95 86.8689 964.655 113.761C713.919 139.321 672.71 236.915 476.334 243.168C303.88 248.656 151.072 180.269 51.8605 123.207" stroke="#9D1B28" stroke-width="1.18753" stroke-miterlimit="10"/>
<path d="M1756.24 28.4373C1459.38 61.1858 1034.05 259.859 1040.35 325.035C1044.54 367.314 1315.33 363.668 1378.23 368.419C1474.6 375.692 1271.01 336.058 1221.68 290.425C1159.85 233.26 1215.72 93.0086 964.922 118.758C717.732 143.855 681.077 243.584 482.895 251.943C310.108 259.235 151.894 192.435 48.9313 136.705" stroke="#9D1B28" stroke-width="1.18753" stroke-miterlimit="10"/>
<path d="M1756.11 33.8875C1474.87 69.0257 1069.52 260 1067.87 321.984C1066.87 361.873 1318.3 357.783 1373.63 361.561C1461.92 367.578 1269.23 329.994 1220.38 286.685C1158.35 231.673 1205.51 99.12 965.267 123.755C721.571 148.37 689.523 250.234 489.481 260.718C316.466 269.786 152.923 204.639 46.0531 150.203" stroke="#9D1B28" stroke-width="1.18753" stroke-miterlimit="10"/>
<path d="M1756 39.3279C1490.38 76.856 1105.04 260.142 1095.38 318.923C1089.21 356.404 1321.02 351.889 1369.01 354.713C1449.24 359.436 1267.36 323.929 1218.96 282.925C1156.66 230.029 1195.27 105.42 965.381 128.732C725.331 153.074 697.764 256.855 495.863 269.474C322.463 280.318 153.643 216.805 42.9707 163.682" stroke="#9D1B28" stroke-width="1.18753" stroke-miterlimit="10"/>
<path d="M1755.89 44.7686C1505.87 84.6959 1140.67 260.227 1122.92 315.862C1111.73 350.897 1323.76 345.985 1364.42 347.855C1436.51 351.18 1265.5 317.865 1217.77 279.194C1155.24 228.489 1185.3 111.579 965.78 133.729C729.248 157.617 706.212 263.467 502.528 278.249C328.849 290.85 154.647 228.99 40.172 177.179" stroke="#9D1B28" stroke-width="1.18753" stroke-miterlimit="10"/>
<path d="M1755.75 50.2095C1521.35 92.5266 1176.41 260.236 1150.43 312.802C1134.33 345.362 1326.47 340.053 1359.82 341.007C1423.76 342.83 1263.69 311.801 1216.47 275.444C1153.6 226.902 1174.96 117.7 965.941 138.735C732.929 162.17 714.449 270.079 508.957 287.034C334.973 301.382 155.414 241.175 37.1105 190.687" stroke="#9D1B28" stroke-width="1.18753" stroke-miterlimit="10"/>
<path d="M1755.64 55.6501C1536.84 100.366 1212.35 260.189 1177.94 309.742C1157.09 339.798 1328.97 334.102 1355.36 334.159C1410.96 334.272 1261.82 305.746 1215.31 271.694C1152.07 225.306 1164.89 123.849 966.47 143.723C737.004 166.714 723.08 276.662 515.754 295.8C341.465 311.857 156.576 253.35 34.4692 204.176" stroke="#9D1B28" stroke-width="1.18753" stroke-miterlimit="10"/>
<path d="M1755.53 61.1003C1552.32 108.197 1248.54 260.085 1205.46 306.691C1180.03 334.206 1332.01 329.672 1350.61 327.301C1397.37 329.19 1259.67 299.691 1213.89 267.953C1150.22 223.719 1154.5 129.979 966.633 148.719C740.66 171.248 731.293 283.237 522.184 304.575C347.564 322.38 157.345 265.535 31.4092 217.674" stroke="#9D1B28" stroke-width="1.18753" stroke-miterlimit="10"/>
<path d="M1755.4 66.5405C1567.84 116.036 1285.09 259.943 1233 303.63C1203.21 328.604 1334.83 323.919 1346.02 320.452C1384.58 321.321 1257.49 293.645 1212.59 264.203C1148.43 222.131 1144.29 136.109 966.929 153.687C744.476 175.762 739.64 289.782 528.722 313.321C353.77 332.845 158.247 277.691 28.4826 231.143" stroke="#9D1B28" stroke-width="1.18753" stroke-miterlimit="10"/>
<path d="M1755.28 71.9819C1583.32 123.868 1322.03 259.811 1260.51 300.57C1226.65 323.013 1337.66 318.167 1341.34 313.595C1371.74 313.435 1255.25 287.601 1211.22 260.463C1146.47 220.545 1133.98 142.23 967.114 158.704C748.18 180.316 747.875 296.357 535.173 322.116C359.892 343.34 158.985 289.896 25.4963 244.66" stroke="#9D1B28" stroke-width="1.18753" stroke-miterlimit="10"/>
<path d="M1755.18 77.4224C1598.81 131.707 1359.42 259.726 1288.03 297.509C1250.35 317.449 1340.49 312.414 1336.83 306.747C1359.04 305.547 1253.11 281.574 1210.01 256.684C1144.58 218.901 1123.83 148.322 967.494 163.662C752.054 184.811 756.28 302.865 541.822 330.853C366.183 353.787 160.024 302.043 22.654 258.12" stroke="#9D1B28" stroke-width="1.18753" stroke-miterlimit="10"/>
<path d="M1755.05 82.8633C1614.3 139.538 1397.2 259.773 1315.57 294.449C1274.32 311.952 1343.33 306.662 1332.21 299.899C1346.25 297.67 1250.8 275.557 1208.72 252.972C1142.5 217.437 1113.6 154.462 967.79 168.688C755.844 189.355 764.575 309.43 548.359 339.656C372.338 364.272 160.926 314.247 19.7269 271.647" stroke="#9D1B28" stroke-width="1.18753" stroke-miterlimit="10"/>
<path d="M1754.93 88.3042C1629.78 147.378 1435.54 260.01 1343.08 291.388C1298.43 306.549 1346.14 300.91 1327.62 293.041C1333.46 289.783 1248.4 269.569 1207.42 249.222C1140.31 215.917 1103.37 160.574 968.054 173.656C759.628 193.842 772.839 315.91 554.916 348.403C378.513 374.7 161.822 326.404 16.8203 285.116" stroke="#9D1B28" stroke-width="1.18753" stroke-miterlimit="10"/>
<path d="M1754.83 93.7539C1645.3 155.208 1474.02 260.5 1370.59 288.337C1322.6 301.249 1348.98 295.157 1323.03 286.193C1320.67 281.904 1245.91 263.598 1206.23 245.472C1138.05 214.443 1093.22 166.685 968.456 178.671C763.525 198.366 781.187 322.455 561.56 357.197C384.774 385.166 162.804 338.607 13.9993 298.633" stroke="#9D1B28" stroke-width="1.18753" stroke-miterlimit="10"/>
<path d="M1754.69 99.1951C1660.78 163.049 1512.53 261.247 1398.1 285.277C1346.73 296.064 1347.99 290.85 1318.43 279.345C1306.11 274.546 1243.34 257.62 1204.8 241.732C1135.41 213.036 1082.85 172.778 968.617 183.669C767.18 202.862 789.322 328.954 568.014 365.972C390.794 395.613 163.597 350.783 10.9634 312.131" stroke="#9D1B28" stroke-width="1.18753" stroke-miterlimit="10"/>
<path d="M1754.58 104.664C1676.27 170.907 1550.84 262.276 1425.51 282.244C1370.55 291.01 1352.78 284.445 1313.68 272.515C1294.06 266.527 1240.55 251.801 1203.38 238.01C1132.54 211.741 1072.49 178.908 968.779 188.684C770.811 207.358 797.405 335.481 574.417 374.766C396.763 406.069 164.365 362.996 7.92874 325.648" stroke="#9D1B28" stroke-width="1.18753" stroke-miterlimit="10"/>
<path d="M1754.47 110.077C1691.75 178.719 1588.77 263.439 1453.16 279.156C1394.42 285.967 1356.81 278.212 1309.21 265.639C1281.96 258.432 1237.97 245.936 1202.22 234.242C1129.71 210.523 1062.31 184.916 969.205 193.625C774.604 211.666 805.572 341.81 581.111 383.485C402.894 416.366 165.397 375.116 5.13204 339.09" stroke="#9D1B28" stroke-width="1.18753" stroke-miterlimit="10"/>
<path d="M1754.33 115.518C1707.24 186.55 1626.22 264.761 1480.67 276.096C1292.67 290.784 1150.71 181.978 969.471 198.64C778.388 216.219 813.887 348.422 587.644 392.279C409.095 426.907 166.268 387.329 2.20044 352.607" stroke="#9D1B28" stroke-width="1.18753" stroke-miterlimit="10"/>
</g>
</svg>
