<svg width="711" height="553" viewBox="0 0 711 553" fill="none" xmlns="http://www.w3.org/2000/svg">
<path d="M785.648 470.07V456.87C785.648 449.03 785.648 441.19 785.648 433.35C785.648 430.06 785.738 429.96 788.988 429.96C806.348 429.96 823.708 429.76 841.058 430.08C865.938 430.55 890.818 430.21 915.688 430.4C924.168 430.46 932.688 430.4 941.128 430.4C942.086 430.386 943.044 430.423 943.998 430.51C944.182 430.504 944.364 430.537 944.535 430.605C944.706 430.673 944.86 430.775 944.99 430.905C945.119 431.036 945.221 431.191 945.287 431.362C945.354 431.533 945.385 431.716 945.378 431.9C945.473 432.854 945.513 433.812 945.498 434.77C945.558 442.85 945.611 450.93 945.658 459.01C945.527 460.214 945.772 461.43 946.358 462.49C946.358 461.97 946.358 461.49 946.358 460.92C946.418 451.24 946.485 441.573 946.558 431.92C946.558 431.6 946.558 431.28 946.558 430.92C946.57 430.679 946.533 430.438 946.448 430.212C946.363 429.986 946.233 429.779 946.065 429.606C945.897 429.432 945.695 429.295 945.472 429.203C945.249 429.111 945.009 429.066 944.768 429.07C944.21 429.012 943.649 428.988 943.088 429C926.288 429 909.488 428.8 892.688 429.13C876.928 429.45 861.178 429.29 845.418 429.38C827.018 429.5 808.618 429.45 790.218 429.48C789.338 429.48 788.458 429.48 787.578 429.48C785.988 429.39 785.708 429.07 785.578 427.41C785.578 427.01 785.578 426.61 785.578 426.21C785.578 384.29 785.611 342.37 785.678 300.45C785.678 283.33 785.558 266.21 785.778 249.09C785.878 241.58 785.978 234.09 786.018 226.55C786.041 225.749 786.015 224.948 785.938 224.15C785.828 223.15 785.418 222.77 784.378 222.67C783.668 222.61 782.938 222.67 782.218 222.67H762.538C762.058 222.64 761.578 222.64 761.098 222.67C759.098 222.92 758.098 222 757.238 220.23C754.438 214.23 751.498 208.23 748.608 202.28C748.508 202.07 748.398 201.85 748.308 201.63C747.648 200.05 747.838 199.63 749.558 199.43C750.663 199.256 751.779 199.163 752.898 199.15C758.498 199.09 764.098 199.07 769.698 199.06C771.048 199.06 772.398 199.16 773.958 199.23C774.156 198.786 774.31 198.324 774.418 197.85C774.495 197.136 774.522 196.418 774.498 195.7C774.498 191.14 774.498 186.58 774.498 182.02C774.498 178.5 774.308 175.02 774.178 171.47C774.108 169.83 773.768 169.47 772.178 169.4C771.618 169.4 771.058 169.4 770.498 169.4H692.258C688.678 169.4 688.678 169.4 688.668 173C688.668 180.44 688.668 187.88 688.668 195.32C688.668 198.61 688.668 198.63 685.328 198.72C685.057 198.708 684.791 198.786 684.568 198.94C684.788 198.94 684.998 199.04 685.218 199.06C685.438 199.08 685.858 199.06 686.218 199.06C692.058 199.06 697.898 199.06 703.738 199.15C705.016 199.177 706.291 199.274 707.558 199.44C708.958 199.63 709.098 199.9 708.638 201.13C708.418 201.73 708.158 202.32 707.888 202.9C705.221 208.547 702.555 214.193 699.888 219.84C698.548 222.7 698.528 222.69 695.378 222.71H694.898L674.268 223.07C674.028 223.07 673.788 223.07 673.548 223.07C671.908 223.22 671.488 223.64 671.368 225.31C671.368 226.03 671.368 226.75 671.368 227.47C671.408 263.63 671.445 299.79 671.478 335.95C671.478 351.07 671.478 366.19 671.478 381.31C671.584 382.319 671.485 383.34 671.188 384.31C670.734 384.194 670.294 384.026 669.878 383.81C667.878 382.4 665.808 380.98 663.828 379.49C662.696 378.585 661.276 378.117 659.828 378.17C657.428 378.24 655.028 378.17 652.628 378.17C651.988 378.17 651.348 378.17 650.708 378.17C649.348 378.07 649.008 377.75 648.888 376.45C648.838 375.82 648.888 375.17 648.888 374.53C648.848 353.81 648.808 333.09 648.768 312.37C648.768 305.9 648.278 299.37 648.538 292.95C648.798 286.53 648.718 280 648.758 273.53C648.758 270.53 648.568 267.46 648.428 264.42C648.358 262.94 648.008 262.62 646.528 262.52C645.888 262.52 645.248 262.52 644.608 262.52H629.068C629.008 262.73 628.958 262.82 628.978 262.85C629.001 262.882 629.031 262.908 629.066 262.927C629.1 262.946 629.139 262.957 629.178 262.96C631.248 263.08 633.318 263.26 635.398 263.3C638.398 263.36 641.478 263.3 644.518 263.3C644.998 263.3 645.518 263.3 645.948 263.3C647.438 263.41 647.748 263.71 647.868 265.18C647.868 265.66 647.868 266.18 647.868 266.62L647.808 286.54V287.02C647.738 289.3 647.668 289.36 645.278 289.36H620.278C619.158 289.36 618.048 289.45 616.928 289.52C614.668 289.68 614.278 289.36 614.248 287.01C614.198 282.37 614.198 277.73 614.178 273.09C614.178 270.53 614.178 267.97 614.178 265.41C614.177 264.772 614.14 264.134 614.068 263.5C614.04 263.259 613.93 263.034 613.758 262.863C613.585 262.693 613.36 262.586 613.118 262.56C612.722 262.492 612.32 262.458 611.918 262.46C607.918 262.46 603.918 262.46 599.918 262.46C599.679 262.459 599.442 262.508 599.223 262.604C599.004 262.701 598.808 262.843 598.648 263.02C600.648 263.09 602.648 263.19 604.568 263.23C606.488 263.27 608.408 263.23 610.328 263.23C610.888 263.23 611.448 263.23 611.998 263.33C612.324 263.345 612.631 263.484 612.858 263.718C613.084 263.952 613.213 264.264 613.218 264.59C613.28 265.228 613.306 265.869 613.298 266.51C613.298 273.07 613.278 279.63 613.238 286.19C613.238 289.14 613.078 289.27 610.098 289.29C607.458 289.29 604.808 289.29 602.178 289.29C599.548 289.29 597.228 289.52 594.748 289.64C593.798 289.64 592.838 289.73 591.878 289.73C586.278 289.73 580.678 289.73 575.078 289.73C572.258 289.73 572.078 289.91 572.078 292.73C572.078 298.17 572.078 303.61 572.078 309.05C572.052 309.443 572.157 309.834 572.378 310.16V307.79C572.378 302.91 572.378 298.03 572.378 293.15C572.378 290.35 572.608 290.15 575.378 290.15C580.578 290.15 585.778 290.15 590.978 290.15C593.808 290.15 593.978 290.34 593.978 293.15C594.028 303.55 593.978 313.95 594.118 324.35C594.218 332.58 594.488 340.81 594.808 349.05C594.808 348.32 594.868 347.58 594.878 346.85C594.938 332.85 595.001 318.85 595.068 304.85C595.068 300.85 595.288 296.85 595.398 292.85C595.398 292.53 595.448 292.21 595.488 291.9C595.508 291.575 595.65 291.27 595.886 291.046C596.121 290.822 596.433 290.694 596.758 290.69C597.396 290.625 598.037 290.595 598.678 290.6H643.988C644.868 290.6 645.748 290.6 646.618 290.68C646.945 290.69 647.256 290.825 647.487 291.058C647.718 291.29 647.851 291.603 647.858 291.93C647.918 292.56 647.948 293.2 647.948 293.84C647.948 314.32 647.925 334.8 647.878 355.28C647.878 357.92 647.688 360.55 647.548 363.19C647.468 364.67 647.118 365.02 645.678 365.12C644.878 365.18 644.078 365.12 643.278 365.12C629.918 365.12 616.558 364.89 603.198 365.19C587.928 365.54 572.648 365.31 557.368 365.5C556.498 365.5 555.618 365.5 554.738 365.41C554.411 365.413 554.096 365.286 553.862 365.057C553.628 364.829 553.493 364.517 553.488 364.19C553.418 363.32 553.398 362.44 553.398 361.56C553.398 339.08 553.415 316.6 553.448 294.12C553.448 260.52 553.448 226.92 553.448 193.32C553.448 171.24 553.448 149.16 553.448 127.08C553.448 126.28 553.448 125.48 553.388 124.68C553.288 123.61 552.958 123.25 551.888 123.18C550.818 123.11 549.488 123.18 548.288 123.18C545.288 123.18 545.288 123.18 544.288 120.46C541.518 113.13 538.778 105.78 535.978 98.46C534.518 94.66 534.978 94.85 530.888 94.87C528.728 94.87 526.568 94.87 524.408 94.87C523.77 94.8652 523.132 94.8251 522.498 94.75C522.216 94.7309 521.948 94.6167 521.74 94.4259C521.531 94.2352 521.393 93.9793 521.348 93.7C521.295 93.4631 521.262 93.2223 521.248 92.98C521.128 90.03 520.978 87.08 520.928 84.12C520.868 80.2 520.928 76.29 520.878 72.37C520.878 64.77 520.851 57.17 520.798 49.57C520.803 48.7708 520.753 47.9723 520.648 47.18C520.604 46.8991 520.451 46.6468 520.223 46.4768C519.995 46.3068 519.71 46.2326 519.428 46.27C519.145 46.242 518.861 46.3164 518.628 46.4797C518.395 46.643 518.228 46.8843 518.158 47.16C518.042 47.6243 517.985 48.1014 517.988 48.58C517.988 53.78 517.988 58.98 517.988 64.18C518.052 64.662 518.145 65.1396 518.268 65.61C518.694 64.807 518.858 63.891 518.738 62.99C518.738 58.83 518.738 54.67 518.798 50.51C518.797 49.7913 518.84 49.0733 518.928 48.36C518.928 48.2 519.218 48.07 519.368 47.92C519.508 48.1 519.738 48.27 519.758 48.46C519.828 49.17 519.848 49.89 519.848 50.61C519.848 64.05 519.811 77.49 519.738 90.93C519.745 91.7278 519.711 92.5255 519.638 93.32C519.624 93.688 519.474 94.0377 519.218 94.3018C518.961 94.5659 518.615 94.7255 518.248 94.75C517.378 94.85 516.498 94.86 515.618 94.89C514.117 94.797 512.61 94.949 511.158 95.34C511.819 95.4797 512.486 95.5866 513.158 95.66C515.398 95.78 517.628 95.88 519.868 95.95C520.578 95.95 521.298 95.81 522.008 95.76C522.45 95.6948 522.901 95.7874 523.281 96.0215C523.661 96.2556 523.947 96.6162 524.088 97.04C524.398 97.86 524.718 98.68 525.018 99.51C527.488 106.36 529.968 113.2 532.408 120.06C533.408 122.95 533.288 123.15 530.138 123.16C518.298 123.16 506.458 123.16 494.628 123.16C491.028 123.16 487.438 123.37 483.838 123.52C482.328 123.58 482.018 123.93 481.898 125.38C481.898 125.86 481.898 126.38 481.898 126.82L481.958 161.14C481.912 161.71 482.016 162.282 482.258 162.8C482.258 162.52 482.328 162.24 482.338 161.95C482.488 153.95 482.648 145.95 482.768 137.95C482.818 134.35 482.768 130.75 482.768 127.15C482.768 124.15 482.918 124.08 485.938 124.07C490.938 124.07 495.858 123.93 500.808 124.07C516.728 124.67 532.648 124.24 548.558 124.39C549.358 124.39 550.158 124.39 550.958 124.46C551.284 124.462 551.596 124.591 551.829 124.818C552.062 125.046 552.198 125.355 552.208 125.68C552.253 126.396 552.253 127.114 552.208 127.83C552.148 129.27 552.008 130.71 552.008 132.14C552.008 187.58 552.008 243.02 552.008 298.46C552.008 315.58 551.788 332.71 552.098 349.82C552.538 373.9 552.278 397.97 552.388 422.05C552.498 446.13 552.478 470.21 552.518 494.29C552.518 497.8 552.518 501.29 552.758 504.85C552.758 504.24 552.858 503.63 552.858 503.02C552.858 487.5 552.718 471.97 553.018 456.46C553.598 427.51 553.178 398.55 553.378 369.6C553.378 366.37 553.458 366.3 556.808 366.3L606.728 366.38H643.728C644.606 366.375 645.484 366.415 646.358 366.5C646.643 366.519 646.91 366.641 647.111 366.844C647.312 367.046 647.432 367.315 647.448 367.6C647.508 367.994 647.538 368.392 647.538 368.79C647.538 371.03 647.538 373.27 647.538 375.51C647.538 375.75 647.538 375.99 647.538 376.23C647.408 377.45 647.148 377.76 645.948 377.93C644.599 378.072 643.262 378.312 641.948 378.65C642.528 378.65 643.108 378.74 643.678 378.74C648.958 378.74 654.238 378.8 659.518 378.74C661.205 378.671 662.859 379.222 664.168 380.29C665.728 381.53 667.388 382.66 668.988 383.85C669.358 384.13 669.928 384.47 669.638 384.96C669.476 385.122 669.282 385.248 669.068 385.33C668.855 385.413 668.627 385.45 668.398 385.44C666.078 385.44 663.758 385.44 661.448 385.37C660.088 385.37 658.728 385.2 657.368 385.19C644.248 385.19 631.128 385.09 618.018 385.19C615.934 385.286 613.889 384.606 612.278 383.28C610.378 381.7 608.328 380.28 606.328 378.82C605.881 378.484 605.398 378.199 604.888 377.97C604.8 377.919 604.7 377.891 604.598 377.889C604.495 377.887 604.395 377.911 604.304 377.959C604.214 378.008 604.138 378.078 604.083 378.164C604.027 378.249 603.995 378.348 603.988 378.45C603.888 379.32 603.838 380.194 603.838 381.07C603.838 393.47 603.838 405.87 603.838 418.27C603.891 458.937 603.945 499.577 603.998 540.19C603.998 541.39 603.998 542.59 604.058 543.79C604.073 543.962 604.133 544.127 604.231 544.269C604.33 544.411 604.463 544.525 604.618 544.6C604.668 543.84 604.748 543.08 604.748 542.32C604.748 536.72 604.765 531.12 604.798 525.52C604.838 490.853 604.875 456.213 604.908 421.6C604.908 410.08 604.908 398.6 604.958 387.04C604.958 385.21 605.158 383.37 605.318 381.54C605.388 380.81 605.918 380.54 606.488 380.92C608.708 382.49 610.898 384.09 613.098 385.7C613.355 385.893 613.563 386.144 613.705 386.433C613.847 386.721 613.92 387.038 613.918 387.36C613.918 388.16 613.918 388.96 613.918 389.76C613.918 414.4 613.798 439.04 614.098 463.68C614.238 475.43 614.268 487.19 614.488 498.95C614.477 499.207 614.559 499.459 614.718 499.66C614.718 498.93 614.788 498.2 614.788 497.48C614.858 481.4 614.688 465.31 615.028 449.24C615.438 429.4 615.138 409.57 615.328 389.73C615.328 389.33 615.328 388.93 615.328 388.53C615.438 386.95 615.748 386.66 617.408 386.53C617.968 386.53 618.528 386.53 619.088 386.53C628.608 386.53 638.088 386.53 647.648 386.47C654.358 386.47 661.078 386.26 667.788 386.16C668.667 386.148 669.545 386.192 670.418 386.29C670.701 386.317 670.966 386.444 671.165 386.647C671.364 386.85 671.486 387.116 671.508 387.4C671.54 387.555 671.564 387.712 671.578 387.87C671.578 388.19 671.578 388.51 671.578 388.87C671.578 396.87 671.578 404.87 671.898 412.87C672.148 419.74 671.978 426.62 671.988 433.5C671.943 434.307 672.037 435.115 672.268 435.89C672.268 435.07 672.328 434.24 672.328 433.42C672.328 419.66 672.328 405.9 672.328 392.14C672.328 381.75 672.328 371.36 672.328 360.96C672.328 350.56 672.328 340.16 672.328 329.76C672.328 319.36 672.328 308.96 672.328 298.56C672.328 283.56 672.188 268.48 672.458 253.45C672.608 244.57 672.638 235.69 672.718 226.82C672.718 224.01 672.938 223.82 675.718 223.82C682.278 223.82 688.838 223.837 695.398 223.87C697.968 223.87 698.158 224.07 698.218 226.55C698.218 227.03 698.218 227.55 698.218 227.99C698.218 248.657 698.218 269.297 698.218 289.91C698.218 320.55 698.138 351.19 698.348 381.83C698.418 391.83 698.548 401.83 698.578 411.83C698.658 444.063 698.718 476.297 698.758 508.53C698.724 509.101 698.796 509.674 698.968 510.22C698.968 509.52 699.038 508.81 699.038 508.11C699.091 477.23 699.131 446.35 699.158 415.47C699.158 390.35 698.958 365.23 699.298 340.11C699.568 321.11 699.438 302.04 699.538 283.01C699.638 263.98 699.588 245.09 699.538 226.13C699.503 224.368 699.879 222.621 700.638 221.03C703.368 215.33 706.068 209.62 708.788 203.91C708.848 203.78 709.008 203.69 709.128 203.57C709.708 203.62 709.608 204.11 709.618 204.45C709.618 206.29 709.618 208.13 709.618 209.97C709.618 246.45 709.635 282.93 709.668 319.41C709.668 343.33 709.468 367.25 709.788 391.17C710.168 419.64 709.908 448.17 710.168 476.59C710.12 477.134 710.235 477.681 710.498 478.16V475.93C710.538 443.21 710.575 410.49 710.608 377.77C710.608 352.77 710.408 327.85 710.748 302.89C710.988 285.78 710.878 268.66 710.978 251.55C711.078 234.44 710.978 217.47 711.028 200.43V196.87C710.608 197.14 710.348 197.21 710.268 197.36C710.038 197.786 709.688 198.134 709.261 198.362C708.834 198.59 708.35 198.686 707.868 198.64C706.428 198.64 704.988 198.64 703.548 198.64H693.228C692.588 198.64 691.948 198.64 691.308 198.58C690.983 198.576 690.671 198.448 690.436 198.224C690.2 198 690.058 197.695 690.038 197.37C689.97 196.736 689.936 196.098 689.938 195.46C689.938 188.18 689.938 180.9 689.938 173.62C689.918 173.22 689.918 172.82 689.938 172.42C690.058 171.25 690.388 170.91 691.598 170.8C692.228 170.74 692.868 170.8 693.508 170.8H727.108C730.718 170.8 730.728 170.8 730.728 174.38C730.728 197.1 730.728 219.82 730.728 242.54C730.728 278.22 730.755 313.887 730.808 349.54C731.488 369.21 731.078 388.89 731.178 408.54C731.278 428.19 731.238 447.74 731.258 467.33C731.209 467.963 731.315 468.598 731.568 469.18V466.81C731.568 434.01 731.568 401.21 731.568 368.41C731.568 321.21 731.601 274.01 731.668 226.81C731.668 215.53 731.538 204.25 731.778 192.97C731.918 186.423 732.008 179.87 732.048 173.31C732.043 172.976 732.059 172.642 732.098 172.31C732.228 171.23 732.538 170.87 733.568 170.76C734.203 170.7 734.841 170.68 735.478 170.7H769.318C770.039 170.693 770.76 170.727 771.478 170.8C771.802 170.821 772.106 170.96 772.334 171.19C772.563 171.421 772.699 171.726 772.718 172.05C772.803 172.686 772.843 173.328 772.838 173.97C772.758 178.28 772.638 182.6 772.568 186.91C772.568 189.63 772.568 192.35 772.568 195.07C772.568 198.53 772.478 198.62 769.118 198.62C762.478 198.62 755.838 198.62 749.198 198.62C748.478 198.62 747.748 198.62 747.038 198.7C746.713 198.716 746.404 198.852 746.172 199.08C745.94 199.309 745.8 199.615 745.778 199.94C745.701 200.574 745.664 201.212 745.668 201.85C745.668 216.73 745.428 231.62 745.748 246.49C746.148 265.13 745.958 283.76 746.018 302.4C746.138 334.24 746.088 366.08 746.118 397.92C746.118 414.64 746.138 431.36 746.178 448.08C746.128 448.883 746.233 449.687 746.488 450.45V448.08C746.488 417.52 746.318 386.96 746.708 356.4C746.978 334.49 746.848 312.57 746.968 290.66C747.088 268.75 747.038 246.82 747.058 224.9C747.058 218.34 747.058 211.78 747.058 205.22C747.035 204.279 747.266 203.35 747.728 202.53C747.961 202.803 748.171 203.094 748.358 203.4C751.018 209.13 753.648 214.87 756.358 220.59C757.153 222.337 757.543 224.241 757.498 226.16C757.498 256.32 757.278 286.48 757.588 316.64C757.948 350.71 757.758 384.79 757.948 418.87C757.948 424.62 757.948 430.38 757.998 436.14C757.943 436.945 758.059 437.753 758.338 438.51C758.338 437.56 758.338 436.61 758.338 435.66C758.338 425.58 758.368 415.5 758.428 405.42C758.428 403.83 758.588 402.23 758.598 400.63C758.598 399.28 758.448 397.92 758.468 396.56C758.528 392.41 758.648 388.25 758.738 384.09C758.738 383.29 758.738 382.5 758.738 381.7C758.738 346.26 758.765 310.82 758.818 275.38C758.818 259.54 758.818 243.7 758.818 227.86C758.818 227.22 758.818 226.57 758.818 225.94C758.918 224.57 759.238 224.24 760.528 224.11C760.928 224.11 761.328 224.11 761.728 224.11H781.508C781.908 224.11 782.308 224.11 782.708 224.11C784.228 224.23 784.708 224.68 784.618 226.25C784.458 232.96 784.798 239.68 784.718 246.39C784.638 253.1 784.718 259.99 784.718 266.79C784.718 273.59 784.718 280.23 784.718 286.95C784.718 330.39 784.745 373.827 784.798 417.26C784.798 429.1 784.818 440.94 784.858 452.78C784.858 454.13 785.028 455.49 785.068 456.85C785.108 458.21 785.068 459.56 785.068 460.91C785.068 463.23 784.948 465.55 784.958 467.86C785.011 468.648 785.128 469.431 785.308 470.2L785.648 470.07ZM539.358 123.2V123.26H537.928C534.648 123.26 534.638 123.26 533.468 120.15C531.468 114.817 529.468 109.51 527.468 104.23C526.738 102.29 526.018 100.34 525.328 98.39C524.548 96.13 524.738 95.86 527.038 95.82C528.478 95.82 529.908 95.82 531.348 95.82C533.948 95.82 534.058 95.92 534.948 98.4C537.615 105.84 540.261 113.283 542.888 120.73C543.018 121.1 543.168 121.47 543.278 121.86C543.498 122.69 543.278 123.14 542.418 123.18C541.428 123.25 540.388 123.2 539.358 123.2Z" fill="url(#paint0_linear_3373_2532)"/>
<path d="M175.118 522.96V520.83C175.118 511.83 175.018 502.91 175.238 493.96C175.878 467.96 175.508 441.96 175.618 415.96C175.728 389.96 175.618 364.12 175.618 338.2C175.618 316.2 175.645 294.2 175.698 272.2C175.68 271.323 175.706 270.445 175.778 269.57C175.77 269.387 175.799 269.205 175.865 269.034C175.931 268.864 176.031 268.709 176.16 268.579C176.289 268.449 176.443 268.348 176.613 268.281C176.783 268.214 176.966 268.183 177.148 268.19C177.706 268.132 178.267 268.108 178.828 268.12C186.908 268.12 194.988 268.12 203.068 268.12C206.278 268.12 206.378 268.23 206.388 271.55C206.388 288.35 206.178 305.15 206.468 321.94C207.018 353.94 206.618 385.94 206.788 417.94C206.908 439.3 206.868 460.66 206.898 482.02C206.835 482.883 206.972 483.749 207.298 484.55C207.298 482.64 207.298 480.73 207.298 478.82C207.988 450.43 207.668 422.04 207.748 393.64C207.828 365.24 207.798 337 207.808 308.64C207.808 271.52 207.808 234.4 207.808 197.28C207.808 194.16 207.808 191.04 207.808 187.92C207.808 185.49 208.128 185.24 210.638 185.18C211.198 185.18 211.758 185.18 212.318 185.18H299.518C300.318 185.18 301.118 185.18 301.918 185.18C303.408 185.28 303.748 185.61 303.838 187.05C303.898 187.93 303.838 188.81 303.838 189.69C303.838 216.357 303.838 242.997 303.838 269.61C303.838 296.17 303.588 322.73 303.958 349.29C304.358 378 304.058 406.72 304.318 435.43C304.398 444.63 304.318 453.83 304.318 463.03V465.36C304.688 464.582 304.804 463.707 304.648 462.86C304.648 453.98 304.508 445.1 304.768 436.22C305.468 412.39 305.078 388.55 305.148 364.72C305.278 322.72 305.228 280.72 305.248 238.72C305.248 222.24 305.248 205.76 305.248 189.28C305.248 188.48 305.248 187.68 305.248 186.88C305.338 185.58 305.698 185.26 307.058 185.15C307.528 185.15 308.058 185.15 308.488 185.15H332.488C335.788 185.15 335.838 185.15 335.848 188.52C335.848 205.853 335.872 223.213 335.918 240.6C335.918 254.27 335.918 267.96 336.008 281.6C336.008 287.76 336.368 293.9 336.658 300.07C336.658 299.45 336.748 298.82 336.748 298.2C336.795 268.867 336.842 239.507 336.888 210.12C336.888 202.787 336.888 195.427 336.888 188.04C336.908 187.243 336.888 186.445 336.828 185.65C336.718 184.59 336.378 184.21 335.318 184.12C333.248 183.95 331.168 183.75 329.098 183.74C320.858 183.69 312.618 183.74 304.378 183.74H209.338C206.608 183.79 206.338 184 206.338 186.81C206.338 195.53 206.098 204.26 206.338 212.97C206.888 229.53 206.398 246.08 206.628 262.64C206.648 263.357 206.628 264.075 206.568 264.79C206.468 265.73 206.098 266.17 205.248 266.22C203.969 266.295 202.687 266.295 201.408 266.22C200.548 266.17 200.178 265.73 200.068 264.81C200.005 264.172 199.981 263.531 199.998 262.89C199.998 260.17 199.998 257.45 199.998 254.73C200.012 254.092 199.985 253.454 199.918 252.82C199.808 251.9 199.458 251.51 198.568 251.42C197.77 251.348 196.969 251.322 196.168 251.34H164.248C163.448 251.34 162.648 251.34 161.848 251.34C160.508 251.23 160.168 250.92 160.048 249.59C159.888 247.84 159.748 246.08 159.698 244.33C159.628 241.61 159.698 238.89 159.618 236.17C159.618 235.53 159.568 234.892 159.468 234.26C159.422 233.977 159.276 233.719 159.055 233.536C158.835 233.352 158.555 233.254 158.268 233.26C157.948 233.224 157.625 233.305 157.36 233.489C157.095 233.673 156.906 233.947 156.828 234.26C156.762 234.488 156.725 234.723 156.718 234.96C156.68 237.516 156.817 240.072 157.128 242.61C157.128 240.73 157.128 238.84 157.198 236.95C157.228 236.237 157.319 235.528 157.468 234.83C157.468 234.7 157.838 234.58 158.048 234.54C158.125 234.546 158.199 234.572 158.262 234.616C158.326 234.66 158.376 234.72 158.408 234.79C158.561 235.235 158.652 235.7 158.678 236.17C158.678 240.49 158.678 244.81 158.588 249.17C158.588 250.88 158.128 251.24 156.418 251.36C155.698 251.36 154.978 251.36 154.258 251.36C149.258 251.36 144.338 251.36 139.378 251.36C138.406 251.26 137.424 251.387 136.508 251.73C136.918 252 137.118 252.25 137.338 252.27C138.208 252.33 139.088 252.35 139.968 252.35H194.688C195.688 252.35 196.618 252.35 197.568 252.42C197.751 252.406 197.935 252.43 198.107 252.492C198.28 252.553 198.438 252.65 198.571 252.777C198.704 252.903 198.809 253.056 198.879 253.225C198.949 253.394 198.983 253.577 198.978 253.76C199.395 257.498 199.512 261.263 199.328 265.02C199.328 266.11 198.928 266.37 197.798 266.4C196.918 266.4 196.038 266.4 195.158 266.4H136.158C135.277 266.388 134.396 266.422 133.518 266.5C132.368 266.62 132.008 267.01 131.918 268.2C131.848 269.08 131.868 269.96 131.868 270.84C131.868 287.64 131.868 304.44 131.868 321.24C131.868 322.12 131.868 323 131.798 323.88C131.698 324.88 131.338 325.26 130.258 325.36C129.388 325.44 128.508 325.42 127.628 325.42H88.2682C71.3882 325.42 54.4983 325.27 37.6283 325.53C28.6283 325.67 19.7183 325.71 10.7583 325.84C8.26826 325.84 8.05824 326.08 8.05824 328.64C8.05824 330.24 8.17825 331.83 8.24825 333.43C8.24825 334.55 8.35824 335.67 8.36824 336.78C8.40824 343.98 8.44489 351.18 8.47823 358.38C8.4304 359.185 8.5321 359.992 8.77821 360.76C8.77821 359.84 8.85823 358.92 8.85823 358C8.89823 348.8 8.93488 339.6 8.96822 330.4C8.96822 326.77 8.96821 326.76 12.5282 326.76L66.5282 326.84C69.8282 326.84 69.8882 326.9 69.8882 330.2C69.8882 362.04 69.8882 393.88 69.8882 425.72C69.8882 435.8 69.7282 445.88 69.9882 455.96C70.5182 477.15 70.1782 498.35 70.4182 519.54C70.3867 519.889 70.4672 520.24 70.6482 520.54C70.6482 519.92 70.7482 519.31 70.7482 518.7C70.7482 506.7 70.6482 494.7 70.9282 482.7C71.5182 457.27 71.1782 431.83 71.2782 406.4C71.3782 380.97 71.2782 355.68 71.2782 330.32C71.2782 329.68 71.2782 329.03 71.3382 328.4C71.4482 327.4 71.7982 327.03 72.8783 326.92C73.5182 326.86 74.1582 326.87 74.7982 326.87H128.558C129.278 326.87 129.998 326.87 130.708 326.97C131.035 326.98 131.345 327.116 131.574 327.349C131.803 327.581 131.933 327.893 131.938 328.22C131.998 329.02 132.008 329.82 132.008 330.62C132.008 344.7 131.818 358.78 132.088 372.86C132.658 402.53 132.208 432.21 132.468 461.86C132.558 472.02 132.468 482.18 132.548 492.34C132.499 493.135 132.601 493.933 132.848 494.69C132.848 492.69 132.908 490.69 132.908 488.69C132.908 478.13 132.748 467.56 133.048 457.01C133.628 435.89 133.288 414.78 133.388 393.66C133.488 372.54 133.458 351.42 133.468 330.3C133.468 310.967 133.468 291.607 133.468 272.22C133.468 271.27 133.468 270.31 133.588 269.35C133.607 269.065 133.73 268.798 133.932 268.597C134.135 268.396 134.404 268.276 134.688 268.26C135.322 268.189 135.96 268.152 136.598 268.15C148.118 268.15 159.638 268.15 171.158 268.15C174.078 268.15 174.238 268.32 174.248 271.3C174.248 297.62 174.248 323.953 174.248 350.3C174.248 365.58 174.008 380.87 174.348 396.14C174.798 416.94 174.508 437.73 174.628 458.53C174.748 479.33 174.708 500.13 174.748 520.93V523.02L175.118 522.96Z" fill="url(#paint1_linear_3373_2532)"/>
<path d="M463.078 552.71V550.36C463.078 514.52 462.908 478.68 463.298 442.84C463.758 400.21 463.448 357.58 463.628 314.94C463.708 295.82 463.628 276.7 463.628 257.58C463.628 241.58 463.628 225.58 463.628 209.58C463.61 208.699 463.636 207.818 463.708 206.94C463.697 206.757 463.723 206.574 463.785 206.402C463.847 206.23 463.942 206.071 464.067 205.937C464.191 205.802 464.341 205.694 464.508 205.619C464.675 205.544 464.855 205.504 465.038 205.5C465.671 205.413 466.309 205.376 466.948 205.39H511.128C514.308 205.39 514.458 205.55 514.458 208.83V303.83C514.458 341.163 514.475 378.523 514.508 415.91C514.508 453.59 514.548 491.257 514.628 528.91C514.628 535.06 515.068 541.21 515.008 547.37C515.069 547.683 515.156 547.991 515.268 548.29C515.268 547 515.348 546.17 515.348 545.29L515.438 412.34C515.438 376.18 515.455 340.02 515.488 303.86C515.488 271.94 515.488 240.023 515.488 208.11C515.488 207.11 515.488 206.19 515.408 205.23C515.406 204.904 515.28 204.591 515.055 204.355C514.83 204.119 514.524 203.978 514.198 203.96C513.564 203.883 512.926 203.846 512.288 203.85H465.488C462.308 203.85 462.168 204 462.168 207.3C462.168 228.633 462.168 249.99 462.168 271.37C462.168 274.81 462.168 278.25 462.168 281.69C462.168 284.21 461.908 284.42 459.418 284.48C458.618 284.48 457.818 284.48 457.018 284.48C454.708 284.42 454.488 284.19 454.428 281.79C454.428 281.31 454.428 280.79 454.428 280.35C454.428 271.95 454.428 263.55 454.428 255.15C454.428 254.35 454.428 253.55 454.338 252.75C454.321 252.424 454.184 252.116 453.953 251.885C453.722 251.654 453.414 251.517 453.088 251.5C452.458 251.42 451.818 251.41 451.178 251.39C450.378 251.39 449.578 251.39 448.778 251.31C447.978 251.23 447.478 250.85 447.388 249.95C447.298 249.05 447.328 248.03 447.318 247.07C447.318 244.3 447.118 244.07 444.318 244.07C436.158 244.07 427.998 244.07 419.838 244.18C414.978 244.25 410.108 244.55 405.228 244.85C405.978 244.85 406.718 244.92 407.468 244.92L427.388 244.98C427.868 244.98 428.388 244.98 428.818 244.98C430.688 245.08 430.968 245.36 431.028 247.31C431.051 248.191 431.025 249.072 430.948 249.95C430.951 250.277 430.824 250.592 430.595 250.826C430.367 251.06 430.055 251.195 429.728 251.2C428.938 251.27 428.138 251.3 427.338 251.3H394.218C392.948 251.14 391.66 251.363 390.518 251.94C391.462 252.233 392.453 252.344 393.438 252.27H422.238C431.598 252.27 440.958 252.27 450.318 252.27C453.478 252.27 453.588 252.37 453.588 255.47C453.588 264.03 453.588 272.59 453.588 281.15C453.588 284.39 453.458 284.51 450.198 284.51H382.278C381.278 284.51 380.358 284.51 379.408 284.59C378.458 284.67 378.018 285.06 377.898 286.12C377.843 286.755 377.823 287.393 377.838 288.03C377.838 299.31 377.688 310.6 377.898 321.87C377.998 327.47 378.128 333.06 378.148 338.66C378.162 339.458 378.125 340.256 378.038 341.05C377.928 341.94 377.528 342.39 376.648 342.42C374.408 342.48 372.171 342.48 369.938 342.42C369.048 342.42 368.678 341.96 368.628 341C368.548 339.41 368.628 337.81 368.548 336.21C368.548 333.64 368.328 333.42 365.848 333.41C353.928 333.41 342.008 333.41 330.088 333.41H329.608C327.808 333.5 327.508 333.76 327.438 335.53C327.388 336.81 327.438 338.09 327.438 339.37C327.438 340 327.438 340.65 327.328 341.28C327.308 341.564 327.189 341.832 326.992 342.037C326.794 342.241 326.531 342.37 326.248 342.4C325.694 342.475 325.137 342.515 324.578 342.52H319.298C318.74 342.52 318.183 342.55 317.628 342.61C317.343 342.624 317.073 342.741 316.869 342.94C316.664 343.139 316.54 343.406 316.518 343.69C316.438 344.323 316.398 344.961 316.398 345.6C316.398 360.96 316.168 376.33 316.478 391.68C316.988 417.68 316.618 443.68 316.828 469.68C316.888 477.76 316.828 485.84 316.888 493.92C316.826 494.635 316.957 495.353 317.268 496V493.64C317.268 490.76 317.268 487.88 317.268 485C317.978 446 317.618 406.93 317.738 367.9C317.738 361.02 317.738 354.14 317.738 347.26C317.738 343.99 317.818 343.95 321.138 343.93C322.658 343.93 324.138 343.93 325.698 343.93C326.256 343.942 326.813 343.918 327.368 343.86C327.546 343.867 327.723 343.837 327.889 343.773C328.056 343.709 328.207 343.612 328.334 343.487C328.461 343.363 328.562 343.214 328.63 343.049C328.697 342.885 328.731 342.708 328.728 342.53C328.818 341.09 328.798 339.65 328.808 338.21C328.808 335.07 328.918 334.96 332.038 334.96H363.978C366.978 334.96 367.088 335.09 367.108 338.06C367.108 339.34 367.108 340.62 367.108 341.9C367.178 343.63 367.508 343.95 369.298 344.01C371.088 344.07 372.818 344.01 374.578 344.01C377.648 344.01 377.788 344.16 377.788 347.3C377.788 359.78 377.628 372.3 377.788 384.73C378.388 424.09 377.958 463.44 378.208 502.8C378.208 508 378.208 513.2 378.208 518.4C378.167 518.966 378.256 519.534 378.468 520.06C378.468 519.3 378.528 518.54 378.538 517.78C378.538 512.78 378.448 507.69 378.608 502.66C379.378 478.59 378.908 454.51 379.008 430.44C379.138 401.24 379.078 372.05 379.098 342.85C379.098 325.09 379.098 307.33 379.098 289.57C379.098 289.01 379.098 288.45 379.098 287.89C379.218 286.56 379.568 286.17 380.848 286.07C381.718 285.99 382.598 286.01 383.478 286.01H443.158C448.438 286.01 453.718 286.01 458.998 286.01C462.138 286.01 462.228 286.11 462.238 289.25C462.238 306.93 462.238 324.597 462.238 342.25C462.238 353.61 462.068 364.97 462.308 376.33C462.868 402.8 462.478 429.27 462.598 455.75C462.718 482.23 462.678 508.55 462.718 534.94C462.718 540.06 462.718 545.18 462.718 550.3V552.68L463.078 552.71ZM438.998 251.76V251.84H437.568C436.218 251.84 434.858 251.84 433.508 251.77C432.508 251.7 432.098 251.3 432.018 250.26C431.958 249.147 431.958 248.032 432.018 246.92C432.078 245.71 432.428 245.38 433.598 245.23C433.908 245.23 434.238 245.23 434.548 245.23H443.828C444.226 245.223 444.624 245.246 445.018 245.3C445.928 245.43 446.288 245.76 446.378 246.68C446.488 247.87 446.528 249.06 446.568 250.26C446.6 250.541 446.524 250.824 446.355 251.05C446.186 251.277 445.937 251.431 445.658 251.48C445.042 251.637 444.413 251.741 443.778 251.79C442.188 251.79 440.588 251.76 438.998 251.76Z" fill="url(#paint2_linear_3373_2532)"/>
<path d="M0.79805 457.19C0.79805 456.5 0.868057 455.82 0.868057 455.13C0.918057 445.69 0.75806 436.25 1.05806 426.82C1.56806 411.06 1.20804 395.3 1.40804 379.55C1.40804 376.99 1.79804 376.55 4.40804 376.8C10.808 377.35 17.208 376.98 23.598 377.05C26.398 377.05 29.1881 376.87 31.9881 376.79C32.9439 376.735 33.9022 376.735 34.858 376.79C35.858 376.89 36.248 377.28 36.348 378.34C36.4165 379.215 36.4398 380.093 36.418 380.97C36.468 400.49 36.468 419.97 36.578 439.53C36.628 447.76 36.948 455.99 37.268 464.25C37.268 463.87 37.3481 463.49 37.3681 463.11C37.3881 462.73 37.3681 462.11 37.3681 461.67C37.3681 450.31 37.2381 438.95 37.5581 427.6C38.0081 411.76 37.758 395.92 37.898 380.09C37.898 377.24 38.098 377.09 40.898 377.04C42.418 377.04 43.898 377.04 45.458 377.1C46.458 377.16 46.868 377.55 46.978 378.6C47.058 379.48 47.0581 380.36 47.0581 381.24C47.0581 400.52 47.0847 419.8 47.138 439.08C47.138 442.6 47.018 446.08 47.138 449.64C47.638 460.26 47.358 470.9 47.718 481.54C47.8991 480.689 47.9664 479.818 47.918 478.95C47.978 465.11 47.788 451.26 48.138 437.43C48.618 418.23 48.248 399.04 48.448 379.84C48.448 378.96 48.448 378.08 48.448 377.2C48.348 375.79 47.9681 375.44 46.5081 375.31C46.0281 375.31 45.5081 375.31 45.0681 375.31C31.1481 375.31 17.2281 375.31 3.30806 375.31C0.0880599 375.31 0.0180306 375.38 0.0280306 378.74C0.0280306 395.62 -0.101987 412.5 0.198013 429.37C0.348014 438.37 0.38807 447.28 0.56807 456.24C0.56807 456.55 0.618026 456.86 0.648026 457.17L0.79805 457.19Z" fill="url(#paint3_linear_3373_2532)"/>
<path d="M917.208 404.88C917.208 404.01 917.208 403.14 917.208 402.27C917.208 395.79 917.098 389.27 917.338 382.84C917.968 365.84 917.538 348.77 917.758 331.74C917.788 330.943 917.768 330.145 917.698 329.35C917.698 328.82 917.487 328.311 917.112 327.936C916.737 327.561 916.229 327.35 915.698 327.35C915.14 327.295 914.579 327.275 914.018 327.29C900.098 327.29 886.178 327.1 872.268 327.38C848.518 327.85 824.768 327.56 801.008 327.71C800.128 327.71 799.248 327.71 798.378 327.77C797.278 327.85 796.948 328.19 796.818 329.22C796.768 329.698 796.748 330.179 796.758 330.66C796.798 350.1 796.835 369.537 796.868 388.97C796.836 389.328 796.939 389.685 797.158 389.97V386.97C797.158 368.65 797.191 350.333 797.258 332.02C797.241 331.299 797.265 330.578 797.328 329.86C797.438 328.86 797.808 328.48 798.848 328.33C799.406 328.263 799.967 328.237 800.528 328.25C803.958 328.33 807.398 328.43 810.828 328.53C811.628 328.53 812.428 328.53 813.228 328.53H826.898C827.608 328.53 828.338 328.53 829.048 328.63C829.333 328.644 829.603 328.761 829.807 328.96C830.012 329.159 830.137 329.426 830.158 329.71C830.258 330.503 830.308 331.301 830.308 332.1C830.348 343.14 830.381 354.177 830.408 365.21C830.408 371.37 830.408 377.53 830.488 383.69C830.568 388.47 830.828 393.26 831.138 398.06C831.138 397.41 831.228 396.76 831.228 396.11C831.288 376.843 831.352 357.567 831.418 338.28C831.418 335.65 831.608 333.01 831.758 330.38C831.828 329.02 832.178 328.7 833.498 328.58C834.138 328.545 834.779 328.545 835.418 328.58L912.918 328.68C913.638 328.68 914.358 328.68 915.068 328.78C915.394 328.793 915.703 328.931 915.931 329.166C916.158 329.4 916.286 329.713 916.288 330.04C916.348 330.76 916.348 331.48 916.358 332.2C916.958 355.7 916.698 379.2 916.868 402.73C916.868 403.44 916.868 404.15 916.868 404.86L917.208 404.88Z" fill="url(#paint4_linear_3373_2532)"/>
<path d="M519.628 21.36V0C519.335 7.12 519.335 14.24 519.628 21.36Z" fill="url(#paint5_linear_3373_2532)"/>
<path d="M519.418 25.95V44.44C519.845 38.2841 519.845 32.1059 519.418 25.95Z" fill="url(#paint6_linear_3373_2532)"/>
<path d="M595.008 269.89V264.01H594.838V269.81L595.008 269.89Z" fill="url(#paint7_linear_3373_2532)"/>
<defs>
<linearGradient id="paint0_linear_3373_2532" x1="473.28" y1="475" x2="473.28" y2="-243" gradientUnits="userSpaceOnUse">
<stop stop-color="#0B6476"/>
<stop offset="1" stop-color="white" stop-opacity="0"/>
</linearGradient>
<linearGradient id="paint1_linear_3373_2532" x1="473.28" y1="475" x2="473.28" y2="-243" gradientUnits="userSpaceOnUse">
<stop stop-color="#0B6476"/>
<stop offset="1" stop-color="white" stop-opacity="0"/>
</linearGradient>
<linearGradient id="paint2_linear_3373_2532" x1="473.28" y1="475" x2="473.28" y2="-243" gradientUnits="userSpaceOnUse">
<stop stop-color="#0B6476"/>
<stop offset="1" stop-color="white" stop-opacity="0"/>
</linearGradient>
<linearGradient id="paint3_linear_3373_2532" x1="473.28" y1="475" x2="473.28" y2="-243" gradientUnits="userSpaceOnUse">
<stop stop-color="#0B6476"/>
<stop offset="1" stop-color="white" stop-opacity="0"/>
</linearGradient>
<linearGradient id="paint4_linear_3373_2532" x1="473.28" y1="475" x2="473.28" y2="-243" gradientUnits="userSpaceOnUse">
<stop stop-color="#0B6476"/>
<stop offset="1" stop-color="white" stop-opacity="0"/>
</linearGradient>
<linearGradient id="paint5_linear_3373_2532" x1="473.28" y1="475" x2="473.28" y2="-243" gradientUnits="userSpaceOnUse">
<stop stop-color="#0B6476"/>
<stop offset="1" stop-color="white" stop-opacity="0"/>
</linearGradient>
<linearGradient id="paint6_linear_3373_2532" x1="473.28" y1="475" x2="473.28" y2="-243" gradientUnits="userSpaceOnUse">
<stop stop-color="#0B6476"/>
<stop offset="1" stop-color="white" stop-opacity="0"/>
</linearGradient>
<linearGradient id="paint7_linear_3373_2532" x1="473.28" y1="475" x2="473.28" y2="-243" gradientUnits="userSpaceOnUse">
<stop stop-color="#0B6476"/>
<stop offset="1" stop-color="white" stop-opacity="0"/>
</linearGradient>
</defs>
</svg>
