<svg width="178" height="200" viewBox="0 0 178 200" fill="none" xmlns="http://www.w3.org/2000/svg">
<path d="M92.5712 128.129C94.1439 114.397 103.387 101.187 116.215 100.811L116.121 97.579C103.292 97.9552 93.2982 85.5582 90.9163 71.6938L87.7091 71.7878C86.3904 85.7607 76.8938 98.7293 64.3116 99.0983L64.4064 102.33C76.9886 101.961 87.2361 114.6 89.364 128.223L92.5712 128.129Z" fill="#996830"/>
<path d="M146.373 116.997C144.024 116.718 142.981 114.494 143.274 112.022C143.502 110.108 144.449 108.667 145.776 107.747L144 107.395L144.111 106.455L148.219 106.943L148.104 107.918C146.025 108.183 144.406 109.774 144.152 111.915C143.979 113.377 144.479 114.513 145.802 114.67C147.16 114.831 147.901 113.789 148.789 111.512C149.74 109.153 150.831 107.394 153.007 107.652C155.148 107.906 156.235 109.906 155.948 112.326C155.749 113.997 154.927 115.276 153.649 116.077L155.284 116.43L155.173 117.37L151.239 116.904L151.358 115.894C153.538 115.676 154.855 114.244 155.08 112.346C155.233 111.058 154.776 109.998 153.488 109.845C152.305 109.705 151.643 110.668 150.821 112.688C149.738 115.419 148.671 117.27 146.373 116.997Z" fill="black"/>
<path d="M143.223 133.733C139.69 132.323 138.272 129.114 139.644 125.679C141.015 122.244 144.253 120.895 147.786 122.305C151.318 123.716 152.736 126.924 151.365 130.359C149.993 133.794 146.755 135.144 143.223 133.733ZM146.863 124.711C143.46 123.353 141.257 123.813 140.386 125.994C139.515 128.176 140.802 130.011 144.204 131.369C147.558 132.708 149.745 132.241 150.616 130.06C151.487 127.879 150.216 126.05 146.863 124.711Z" fill="black"/>
<path d="M131.591 142.237L139.201 147.924L132.642 138.253L133.681 136.863L144.947 140.292L137.309 134.585C136.901 134.28 136.582 134.326 136.373 134.607L135.754 135.436L135.108 134.953L137.626 131.583L138.272 132.066L137.737 132.782C137.516 133.077 137.541 133.424 137.949 133.728L145.307 139.226C145.714 139.53 146.043 139.47 146.253 139.189L146.809 138.445L147.455 138.927L144.675 142.648L134.951 139.672L140.593 148.111L137.855 151.776L137.209 151.293L137.765 150.549C137.975 150.268 137.939 149.935 137.532 149.631L130.174 144.133C129.767 143.829 129.438 143.889 129.228 144.17L128.672 144.914L128.026 144.431L131.278 140.078L131.924 140.561L131.358 141.319C131.148 141.6 131.183 141.933 131.591 142.237Z" fill="black"/>
<path d="M127.43 146.755L130.987 157.387L129.169 158.819L119.733 152.931C119.12 152.522 118.812 152.385 118.426 152.689L117.848 153.145L117.349 152.511L121.686 149.094L122.185 149.728L121.469 150.292C121.083 150.595 121.119 150.924 121.629 151.259L123.729 152.594L123.697 152.553L127.318 149.7L126.522 147.359C126.275 146.705 126.026 146.701 125.696 146.961L124.98 147.525L124.481 146.892L127.62 144.419L128.119 145.052L127.527 145.518C127.197 145.779 127.211 146.08 127.43 146.755ZM127.624 150.485L124.375 153.045L129.699 156.46L127.624 150.485Z" fill="black"/>
<path d="M110.295 167.251L106.063 157.393L107.706 156.688L117.998 163.2L114.645 155.388C114.444 154.921 114.129 154.808 113.806 154.946L112.856 155.354L112.538 154.613L116.404 152.954L116.722 153.695L115.868 154.061C115.546 154.2 115.41 154.506 115.611 154.973L119.234 163.413C119.435 163.88 119.75 163.993 120.072 163.854L120.926 163.488L121.244 164.229L117.701 165.75L108.26 159.845L111.261 166.836C111.462 167.303 111.761 167.422 112.051 167.298L113.001 166.89L113.319 167.631L109.502 169.27L109.184 168.529L110.038 168.162C110.36 168.024 110.495 167.718 110.295 167.251Z" fill="black"/>
<path d="M104.714 170.516L99.3362 171.295L99.2207 170.497L100.158 170.361C100.504 170.311 100.715 170.05 100.642 169.547L99.3265 160.457C99.2537 159.954 98.9782 159.763 98.6312 159.814L97.6944 159.949L97.5789 159.151L102.957 158.373L103.072 159.171L102.153 159.304C101.806 159.354 101.596 159.615 101.668 160.118L102.984 169.208C103.057 169.711 103.332 169.902 103.679 169.851L104.599 169.718L104.714 170.516Z" fill="black"/>
<path d="M64.2401 154.302L63.9675 155.741C65.1617 155.066 66.5678 155.043 68.0818 155.647C71.5004 157.012 72.9639 160.296 71.5534 163.828C70.1429 167.361 66.7878 168.72 63.4344 167.381C61.8879 166.764 60.7024 165.667 60.3141 164.135L59.5762 165.652L58.6971 165.301L60.2571 161.394L61.2013 161.771C60.8315 163.926 61.7082 165.748 63.5966 166.502C65.9082 167.425 67.8669 166.207 69.1799 162.918C70.4994 159.614 69.8405 157.293 67.6428 156.416C65.7219 155.649 64.2575 156.196 63.5165 158.052L63.2045 158.834C63.016 159.306 63.1594 159.608 63.485 159.738L65.2594 160.447L64.9604 161.196L59.6535 159.077L59.9525 158.328L60.5385 158.562C60.8641 158.692 61.1765 158.571 61.365 158.099L63.068 153.834L64.2401 154.302Z" fill="black"/>
<path d="M54.1369 161.933L53.6543 162.579L48.9221 159.044C46.1418 156.966 45.5073 155.004 46.7768 153.305C47.5951 152.21 48.9056 151.832 50.6983 152.537C49.6584 151.323 49.5019 150.068 50.3412 148.945L51.1491 147.863C51.6317 147.217 51.6382 146.916 51.3433 146.696C51.0765 146.496 50.7961 146.549 50.4394 147.027L49.8204 147.855L49.1183 147.331L49.7478 146.488C50.4717 145.519 51.3864 145.349 52.5659 146.231C53.6612 147.049 53.9995 148.002 53.0237 149.308L52.3733 150.178C51.2821 151.639 51.5329 152.68 53.1618 153.897L54.5238 154.914L56.9579 151.657C57.2622 151.249 57.202 150.92 56.9212 150.71L56.2331 150.196L56.7157 149.55L60.9985 152.75L60.5159 153.396L59.7717 152.84C59.4908 152.63 59.1578 152.666 58.8536 153.073L53.3559 160.431C53.0516 160.838 53.1118 161.168 53.3927 161.377L54.1369 161.933ZM49.9945 158.838L51.0196 159.604L54.0412 155.56L52.9459 154.742C50.8818 153.2 49.6903 153.447 48.7565 154.697C47.7808 156.003 47.8602 157.244 49.9945 158.838Z" fill="black"/>
<path d="M36.7149 137.515C39.7027 135.161 43.1903 135.538 45.4793 138.443C47.7682 141.348 47.318 144.827 44.3302 147.181C41.3424 149.535 37.8548 149.159 35.5659 146.253C33.2769 143.348 33.7271 139.869 36.7149 137.515ZM42.708 145.179C45.5856 142.911 46.2887 140.773 44.835 138.928C43.3814 137.083 41.1488 137.28 38.2712 139.547C35.4349 141.782 34.7456 143.909 36.1992 145.754C37.6529 147.599 39.8717 147.413 42.708 145.179Z" fill="black"/>
<path d="M38.2216 125.953C39.2726 128.401 39.1152 130.7 36.0871 132L30.063 134.586C29.5959 134.787 29.4833 135.102 29.6216 135.425L29.9743 136.246L29.2334 136.564L27.1244 131.651L27.8653 131.333L28.2179 132.155C28.3562 132.477 28.6624 132.613 29.1295 132.412L34.912 129.93C37.1831 128.955 37.79 127.836 36.9672 125.919C36.172 124.067 34.9333 123.492 32.5817 124.502L26.7993 126.984C26.3322 127.184 26.2196 127.5 26.3509 127.806L26.7036 128.627L25.9627 128.945L24.3723 125.241L25.1132 124.923L25.4659 125.744C25.5972 126.05 25.9034 126.186 26.3705 125.985L32.2496 123.461C35.5999 122.023 37.2881 123.778 38.2216 125.953Z" fill="black"/>
<path d="M23.8576 119.896L23.0596 120.012L22.1835 113.958C21.684 110.505 22.8059 108.59 25.2346 108.238C27.5246 107.907 29.3422 109.574 29.912 113.512L30.1354 115.056L33.1193 114.624C33.6224 114.552 33.8127 114.276 33.7625 113.929L33.5893 112.732L34.3873 112.617L35.2032 118.255L34.4052 118.37L34.2721 117.451C34.2219 117.104 33.9613 116.894 33.4582 116.966L24.3679 118.282C23.8648 118.355 23.6744 118.63 23.7246 118.977L23.8576 119.896ZM23.0744 114.484L23.3003 116.045L29.3374 115.172L29.1115 113.61C28.7375 111.025 27.4546 110.361 25.6505 110.622C23.7769 110.893 22.6953 111.864 23.0744 114.484Z" fill="black"/>
<path d="M31.2015 82.88C33.5528 83.1464 34.6068 85.3651 34.3265 87.8384C34.1094 89.7543 33.1694 91.2001 31.8472 92.1264L33.6254 92.469L33.5188 93.4095L29.4083 92.9437L29.5189 91.9684C31.5965 91.6922 33.2066 90.093 33.4494 87.9507C33.6152 86.4876 33.1086 85.3541 31.7849 85.2041C30.4264 85.0502 29.6904 86.0958 28.8144 88.378C27.8762 90.7414 26.7941 92.5063 24.617 92.2596C22.4747 92.0168 21.3776 90.0226 21.652 87.6016C21.8415 85.9296 22.6573 84.646 23.9308 83.8377L22.2939 83.4935L22.4005 82.5529L26.3368 82.999L26.2223 84.0092C24.0441 84.2387 22.7344 85.6779 22.5192 87.5764C22.3732 88.8653 22.8354 89.9232 24.1243 90.0692C25.3087 90.2035 25.9651 89.237 26.7767 87.2121C27.8454 84.4754 28.9025 82.6194 31.2015 82.88Z" fill="black"/>
<path d="M34.2653 66.1278C37.8052 67.5197 39.2399 70.7208 37.8865 74.1628C36.533 77.6048 33.3023 78.9713 29.7624 77.5794C26.2225 76.1874 24.7878 72.9864 26.1412 69.5444C27.4947 66.1024 30.7254 64.7358 34.2653 66.1278ZM30.6727 75.1685C34.0821 76.5092 36.283 76.0373 37.1425 73.8514C38.002 71.6655 36.7056 69.8372 33.2962 68.4966C29.9357 67.1752 27.7512 67.6535 26.8916 69.8394C26.0321 72.0253 27.3122 73.8472 30.6727 75.1685Z" fill="black"/>
<path d="M45.8523 57.5625L38.2118 51.9159L44.8217 61.5523L43.7903 62.9479L32.5058 59.5779L40.1745 65.2452C40.5833 65.5473 40.902 65.4995 41.1104 65.2176L41.725 64.3859L42.3735 64.8651L39.8732 68.2483L39.2247 67.7691L39.756 67.0502C39.9748 66.7541 39.9478 66.4072 39.539 66.1051L32.1523 60.6461C31.7435 60.344 31.4144 60.4059 31.206 60.6879L30.6539 61.435L30.0054 60.9558L32.7662 57.2201L42.5049 60.1453L36.8187 51.7365L39.5378 48.0572L40.1863 48.5364L39.6341 49.2836C39.4258 49.5655 39.4632 49.8983 39.872 50.2004L47.2587 55.6594C47.6675 55.9615 47.9966 55.8996 48.205 55.6177L48.7571 54.8705L49.4056 55.3498L46.176 59.7198L45.5276 59.2405L46.0901 58.4793C46.2985 58.1974 46.2611 57.8646 45.8523 57.5625Z" fill="black"/>
<path d="M49.9887 53.0229L46.3765 42.4099L48.1864 40.9684L57.6537 46.8064C58.2687 47.2129 58.5778 47.3477 58.9617 47.0419L59.5376 46.5833L60.0399 47.214L55.7208 50.6538L55.2185 50.0231L55.9315 49.4552C56.3154 49.1495 56.2778 48.8209 55.7666 48.4885L53.6589 47.1644L53.6916 47.2056L50.0855 50.0776L50.8934 52.4144C51.1439 53.0665 51.393 53.0698 51.7221 52.8077L52.435 52.2399L52.9374 52.8706L49.8112 55.3604L49.3088 54.7297L49.8984 54.2601C50.2275 53.998 50.2117 53.6968 49.9887 53.0229ZM49.7751 49.294L53.0111 46.7168L47.6693 43.3298L49.7751 49.294Z" fill="black"/>
<path d="M67.0166 32.4376L71.3001 42.2728L69.6609 42.9867L59.3346 36.529L62.7292 44.3232C62.9322 44.7893 63.2482 44.9002 63.5696 44.7602L64.5177 44.3472L64.8397 45.0865L60.9828 46.7663L60.6608 46.0271L61.5125 45.6561C61.834 45.5161 61.968 45.2092 61.765 44.7432L58.0974 36.3222C57.8944 35.8561 57.5784 35.7452 57.257 35.8852L56.4053 36.2561L56.0833 35.5169L59.6188 33.9771L69.09 39.8322L66.0523 32.8576C65.8494 32.3915 65.5495 32.2736 65.2602 32.3996L64.312 32.8125L63.9901 32.0733L67.7988 30.4145L68.1207 31.1537L67.269 31.5247C66.9476 31.6647 66.8136 31.9716 67.0166 32.4376Z" fill="black"/>
<path d="M72.5783 29.1335L77.952 28.327L78.0717 29.1244L77.1356 29.2649C76.7889 29.3169 76.5801 29.5787 76.6555 30.0814L78.0186 39.1647C78.0941 39.6674 78.3706 39.8563 78.7173 39.8043L79.6533 39.6638L79.773 40.4612L74.3993 41.2676L74.2796 40.4702L75.1984 40.3324C75.545 40.2803 75.7539 40.0186 75.6785 39.5159L74.3154 30.4326C74.2399 29.9299 73.9634 29.7409 73.6167 29.793L72.698 29.9308L72.5783 29.1335Z" fill="black"/>
<path d="M113.138 45.1446L113.403 43.7043C112.213 44.3851 110.807 44.4161 109.29 43.8196C105.864 42.4725 104.383 39.1969 105.775 35.657C107.167 32.1171 110.515 30.7401 113.875 32.0615C115.425 32.6709 116.616 33.7609 117.013 35.2917L117.743 33.7705L118.624 34.1169L117.084 38.032L116.138 37.6599C116.496 35.503 115.61 33.6854 113.718 32.9413C111.401 32.0305 109.449 33.2593 108.153 36.5545C106.851 39.866 107.522 42.1829 109.725 43.0488C111.649 43.8057 113.111 43.2503 113.842 41.3907L114.15 40.6076C114.336 40.1346 114.191 39.8327 113.865 39.7044L112.087 39.0052L112.382 38.2549L117.7 40.346L117.405 41.0963L116.817 40.8654C116.491 40.7371 116.179 40.8594 115.993 41.3325L114.313 45.6064L113.138 45.1446Z" fill="black"/>
<path d="M123.201 37.4602L123.68 36.8118L128.431 40.3226C131.222 42.3854 131.867 44.3441 130.606 46.0498C129.794 47.1493 128.485 47.5337 126.689 46.8382C127.735 48.0473 127.898 49.3013 127.065 50.429L126.263 51.5145C125.783 52.1629 125.779 52.4644 126.075 52.6832C126.342 52.8812 126.623 52.8266 126.977 52.3473L127.591 51.5156L128.296 52.0365L127.671 52.8823C126.952 53.855 126.039 54.0297 124.854 53.1546C123.755 52.342 123.412 51.3908 124.38 50.0798L125.026 49.2058C126.11 47.7398 125.854 46.7004 124.218 45.4919L122.851 44.4813L120.434 47.7518C120.132 48.1606 120.194 48.4897 120.476 48.6981L121.166 49.2085L120.687 49.857L116.388 46.6795L116.867 46.0311L117.614 46.5832C117.896 46.7916 118.229 46.7542 118.531 46.3454L123.99 38.9587C124.292 38.5498 124.23 38.2207 123.948 38.0124L123.201 37.4602ZM127.36 40.5335L126.331 39.773L123.33 43.8329L124.43 44.6455C126.502 46.1769 127.692 45.9231 128.619 44.6685C129.588 43.3575 129.502 42.117 127.36 40.5335Z" fill="black"/>
<path d="M140.751 61.7865C137.776 64.1562 134.286 63.7981 131.982 60.905C129.678 58.0119 130.11 54.5307 133.085 52.161C136.061 49.7914 139.55 50.1494 141.854 53.0425C144.159 55.9357 143.727 59.4168 140.751 61.7865ZM134.718 54.1548C131.852 56.4371 131.161 58.5791 132.624 60.4164C134.087 62.2537 136.319 62.0451 139.184 59.7628C142.009 57.5132 142.687 55.3822 141.224 53.5449C139.76 51.7075 137.543 51.9052 134.718 54.1548Z" fill="black"/>
<path d="M139.305 73.357C138.241 70.9143 138.386 68.6141 141.408 67.2982L147.418 64.6805C147.884 64.4775 147.995 64.1616 147.855 63.8401L147.498 63.0205L148.237 62.6986L150.372 67.6001L149.633 67.9221L149.276 67.1025C149.136 66.7811 148.829 66.6471 148.363 66.85L142.594 69.3628C140.328 70.3497 139.727 71.4718 140.559 73.3842C141.364 75.2323 142.606 75.8004 144.952 74.7786L150.722 72.2658C151.188 72.0629 151.299 71.7469 151.166 71.4415L150.809 70.6219L151.548 70.3L153.158 73.9962L152.418 74.3182L152.061 73.4986C151.929 73.1932 151.622 73.0592 151.156 73.2622L145.29 75.8169C141.947 77.2728 140.25 75.5265 139.305 73.357Z" fill="black"/>
<path d="M153.7 79.3377L154.498 79.218L155.406 85.2678C155.923 88.7174 154.811 90.639 152.385 91.0032C150.096 91.3466 148.27 89.6886 147.68 85.7537L147.448 84.2109L144.467 84.6583C143.964 84.7338 143.775 85.0103 143.827 85.357L144.006 86.553L143.209 86.6727L142.364 81.039L143.161 80.9193L143.299 81.838C143.351 82.1847 143.613 82.3936 144.115 82.3182L153.199 80.9551C153.701 80.8796 153.89 80.6031 153.838 80.2564L153.7 79.3377ZM154.512 84.7461L154.278 83.186L148.245 84.0912L148.48 85.6513C148.867 88.2342 150.153 88.892 151.956 88.6214C153.828 88.3405 154.905 87.3636 154.512 84.7461Z" fill="black"/>
</svg>
